
<svg width="511px" height="60px" viewBox="56 106 511 60" version="1.1" xmlns="http://www.w3.org/2000/svg" xmlns:xlink="http://www.w3.org/1999/xlink">
    <!-- Generator: Sketch 41.2 (35397) - http://www.bohemiancoding.com/sketch -->
    <desc>Created with Sketch.</desc>
    <defs></defs>
    <g id="Group" stroke="none" stroke-width="1" fill="none" fill-rule="evenodd" transform="translate(56.000000, 106.000000)">
        <path d="M36.84375,1.59375 C39.0833445,2.50521289 41.2708227,3.7812418 43.40625,5.421875 C43.9791695,5.89062734 44.4999977,6.125 44.96875,6.125 C46.0364637,6.125 46.7265609,4.53647422 47.0390625,1.359375 L48.875,1.359375 C48.6666656,5.00522656 48.5625,11.4634953 48.5625,20.734375 L46.6875,20.734375 C46.3749984,18.0520699 46.0169291,15.8776125 45.6132812,14.2109375 C45.2096334,12.5442625 44.6237018,11.0664127 43.8554688,9.77734375 C43.0872357,8.4882748 42.0260484,7.30990117 40.671875,6.2421875 C39.3697852,4.96613945 37.8398525,3.98958672 36.0820312,3.3125 C34.32421,2.63541328 32.4817805,2.296875 30.5546875,2.296875 C26.9088359,2.296875 23.8945432,3.5598832 21.5117188,6.0859375 C19.1288943,8.6119918 17.3841201,11.9518021 16.2773438,16.1054688 C15.1705674,20.2591354 14.6171875,24.8359125 14.6171875,29.8359375 C14.6171875,34.8359625 15.1966088,39.3997189 16.3554688,43.5273438 C17.5143287,47.6549686 19.3111857,50.9622271 21.7460938,53.4492188 C24.1810018,55.9362104 27.2213359,57.1796875 30.8671875,57.1796875 C32.6901133,57.1796875 34.4934807,56.8476596 36.2773438,56.1835938 C38.0612068,55.5195279 39.5781188,54.5625063 40.828125,53.3125 C42.1822984,52.2708281 43.2369754,51.0599027 43.9921875,49.6796875 C44.7473996,48.2994723 45.3203105,46.6979258 45.7109375,44.875 C46.1015645,43.0520742 46.427082,40.7083477 46.6875,37.84375 L48.5625,37.84375 C48.5625,47.5052566 48.6666656,54.2239395 48.875,58 L47.0390625,58 C46.8828117,56.333325 46.6549494,55.12891 46.3554688,54.3867188 C46.0559881,53.6445275 45.6328152,53.2734375 45.0859375,53.2734375 C44.643227,53.2734375 44.0833367,53.4947895 43.40625,53.9375 C41.8437422,55.0572973 40.3919338,55.9752568 39.0507812,56.6914062 C37.7096287,57.4075557 36.1796961,57.9934873 34.4609375,58.4492188 C32.7421789,58.9049502 30.8020941,59.1328125 28.640625,59.1328125 C22.9895551,59.1328125 18.0351775,57.9869906 13.7773438,55.6953125 C9.51950996,53.4036344 6.22527207,50.0768447 3.89453125,45.7148438 C1.56379043,41.3528428 0.3984375,36.1640926 0.3984375,30.1484375 C0.3984375,24.2629914 1.59634219,19.0547102 3.9921875,14.5234375 C6.38803281,9.99216484 9.73435352,6.476575 14.03125,3.9765625 C18.3281465,1.47655 23.2239309,0.2265625 28.71875,0.2265625 C31.8958492,0.2265625 34.6041555,0.682287109 36.84375,1.59375 Z M113.75228,3.5859375 C112.944984,3.92448086 112.391604,4.54947461 112.092124,5.4609375 C111.792643,6.37240039 111.642905,7.83071914 111.642905,9.8359375 L111.642905,49.5234375 C111.642905,51.5286559 111.792643,52.9869746 112.092124,53.8984375 C112.391604,54.8099004 112.951494,55.4348941 113.771811,55.7734375 C114.592128,56.1119809 115.887688,56.3203121 117.65853,56.3984375 L117.65853,58 C115.05435,57.8437492 111.004911,57.765625 105.510092,57.765625 C100.093399,57.765625 95.9007321,57.8437492 92.9319673,58 L92.9319673,56.3984375 C94.7288512,56.3203121 96.0309216,56.1119809 96.8382173,55.7734375 C97.645513,55.4348941 98.1988928,54.8099004 98.4983735,53.8984375 C98.7978542,52.9869746 98.9475923,51.5286559 98.9475923,49.5234375 L98.9475923,30.3046875 L77.7366548,30.3046875 L77.7366548,49.5234375 C77.7366548,51.5286559 77.8863928,52.9869746 78.1858735,53.8984375 C78.4853542,54.8099004 79.0387341,55.4348941 79.8460298,55.7734375 C80.6533255,56.1119809 81.9553958,56.3203121 83.7522798,56.3984375 L83.7522798,58 C80.8616403,57.8437492 76.8252223,57.765625 71.6429048,57.765625 C65.9397512,57.765625 61.7340641,57.8437492 59.0257173,58 L59.0257173,56.3984375 C60.8226012,56.3203121 62.1181612,56.1119809 62.912436,55.7734375 C63.7067108,55.4348941 64.2535803,54.8099004 64.553061,53.8984375 C64.8525417,52.9869746 65.0022798,51.5286559 65.0022798,49.5234375 L65.0022798,9.8359375 C65.0022798,7.83071914 64.8525417,6.37240039 64.553061,5.4609375 C64.2535803,4.54947461 63.7002005,3.92448086 62.8929048,3.5859375 C62.0856091,3.24739414 60.7965594,3.03906289 59.0257173,2.9609375 L59.0257173,1.359375 C61.7340641,1.51562578 65.9397512,1.59375 71.6429048,1.59375 C76.8252223,1.59375 80.8616403,1.51562578 83.7522798,1.359375 L83.7522798,2.9609375 C81.9553958,3.03906289 80.6533255,3.24739414 79.8460298,3.5859375 C79.0387341,3.92448086 78.4853542,4.54947461 78.1858735,5.4609375 C77.8863928,6.37240039 77.7366548,7.83071914 77.7366548,9.8359375 L77.7366548,28.703125 L98.9475923,28.703125 L98.9475923,9.8359375 C98.9475923,7.83071914 98.7978542,6.37240039 98.4983735,5.4609375 C98.1988928,4.54947461 97.645513,3.92448086 96.8382173,3.5859375 C96.0309216,3.24739414 94.7288512,3.03906289 92.9319673,2.9609375 L92.9319673,1.359375 C95.9007321,1.51562578 100.093399,1.59375 105.510092,1.59375 C111.004911,1.59375 115.05435,1.51562578 117.65853,1.359375 L117.65853,2.9609375 C115.861646,3.03906289 114.559575,3.24739414 113.75228,3.5859375 Z M174.547528,55.1289062 C175.44597,55.9231811 176.337888,56.3463539 177.22331,56.3984375 L177.22331,58 C174.04621,57.8437492 169.996772,57.765625 165.074872,57.765625 C159.606095,57.765625 155.543635,57.8437492 152.887372,58 L152.887372,56.3984375 C154.89259,56.3203121 156.331378,56.0729187 157.203778,55.65625 C158.076178,55.2395813 158.512372,54.5104219 158.512372,53.46875 C158.512372,52.5312453 158.199875,51.2682371 157.574872,49.6796875 L152.770185,36.5546875 L135.387372,36.5546875 L133.238935,42.1015625 C131.780594,45.8515812 131.051435,48.8072809 131.051435,50.96875 C131.051435,52.9479266 131.643877,54.3346314 132.828778,55.1289062 C134.01368,55.9231811 135.791006,56.3463539 138.16081,56.3984375 L138.16081,58 C134.514958,57.8437492 131.194679,57.765625 128.199872,57.765625 C125.69986,57.765625 123.655609,57.8437492 122.06706,58 L122.06706,56.3984375 C124.749365,55.9036434 127.06705,53.1041922 129.020185,48 L147.22331,1.203125 C148.082689,1.28125039 149.007159,1.3203125 149.996747,1.3203125 C150.986335,1.3203125 151.910805,1.28125039 152.770185,1.203125 L172.184247,51.28125 C172.861334,53.0520922 173.649086,54.3346314 174.547528,55.1289062 Z M144.25456,13.4296875 L135.97331,34.953125 L152.184247,34.953125 L144.25456,13.4296875 Z M229.522464,4.30859375 C228.689127,4.97265957 228.122726,5.99478477 227.823246,7.375 C227.523765,8.75521523 227.374027,10.7994656 227.374027,13.5078125 L227.374027,58.15625 C226.9834,58.1302082 226.345385,58.1171875 225.459964,58.1171875 C224.52246,58.1171875 223.7933,58.1302082 223.272464,58.15625 L188.584964,14.171875 L188.584964,44.875 C188.584964,48.0520992 188.747723,50.3697844 189.073246,51.828125 C189.398768,53.2864656 190.095376,54.3541633 191.163089,55.03125 C192.230803,55.7083367 193.962556,56.1640613 196.358402,56.3984375 L196.358402,58 C194.3011,57.8437492 191.410504,57.765625 187.686527,57.765625 C184.743804,57.765625 182.426119,57.8437492 180.733402,58 L180.733402,56.3984375 C182.478202,56.1640613 183.767252,55.7148471 184.600589,55.0507812 C185.433927,54.3867154 186.000327,53.3645902 186.299808,51.984375 C186.599289,50.6041598 186.749027,48.5599094 186.749027,45.8515625 L186.749027,9.8359375 C186.749027,7.83071914 186.599289,6.37240039 186.299808,5.4609375 C186.000327,4.54947461 185.446947,3.92448086 184.639652,3.5859375 C183.832356,3.24739414 182.530286,3.03906289 180.733402,2.9609375 L180.733402,1.359375 C182.426119,1.51562578 184.743804,1.59375 187.686527,1.59375 C190.420915,1.59375 192.72558,1.51562578 194.600589,1.359375 L225.538089,39.5234375 L225.538089,14.484375 C225.538089,11.3072758 225.37533,8.98959063 225.049808,7.53125 C224.724286,6.07290937 224.027678,5.00521172 222.959964,4.328125 C221.892251,3.65103828 220.160497,3.19531367 217.764652,2.9609375 L217.764652,1.359375 C219.847996,1.51562578 222.738592,1.59375 226.436527,1.59375 C229.405292,1.59375 231.722977,1.51562578 233.389652,1.359375 L233.389652,2.9609375 C231.644851,3.19531367 230.355802,3.64452793 229.522464,4.30859375 Z" id="CHAN" fill="#EEEEF1"></path>
        <path d="M303.550781,54.5039062 C304.39714,55.2460975 305.497389,55.8776016 306.851562,56.3984375 L306.851562,58 C303.153627,57.8437492 298.987002,57.765625 294.351562,57.765625 C290.83592,57.765625 287.450537,57.8437492 284.195312,58 L284.195312,56.3984375 C285.705737,56.3463539 286.792965,56.1966158 287.457031,55.9492188 C288.121097,55.7018217 288.453125,55.3177109 288.453125,54.796875 C288.453125,54.406248 288.17969,53.7421922 287.632812,52.8046875 L275.992188,34.015625 C275.236975,32.8177023 274.592451,31.9192738 274.058594,31.3203125 C273.524737,30.7213512 272.984378,30.2981783 272.4375,30.0507812 C271.890622,29.8033842 271.200525,29.6406254 270.367188,29.5625 L270.367188,49.5234375 C270.367188,51.5286559 270.516926,52.9869746 270.816406,53.8984375 C271.115887,54.8099004 271.669267,55.4348941 272.476562,55.7734375 C273.283858,56.1119809 274.585929,56.3203121 276.382812,56.3984375 L276.382812,58 C273.492173,57.8437492 269.455755,57.765625 264.273438,57.765625 C258.570284,57.765625 254.364597,57.8437492 251.65625,58 L251.65625,56.3984375 C253.453134,56.3203121 254.748694,56.1119809 255.542969,55.7734375 C256.337244,55.4348941 256.884113,54.8099004 257.183594,53.8984375 C257.483074,52.9869746 257.632812,51.5286559 257.632812,49.5234375 L257.632812,9.8359375 C257.632812,7.83071914 257.483074,6.37240039 257.183594,5.4609375 C256.884113,4.54947461 256.330733,3.92448086 255.523438,3.5859375 C254.716142,3.24739414 253.427092,3.03906289 251.65625,2.9609375 L251.65625,1.359375 C254.364597,1.51562578 258.570284,1.59375 264.273438,1.59375 C269.455755,1.59375 273.492173,1.51562578 276.382812,1.359375 L276.382812,2.9609375 C274.585929,3.03906289 273.283858,3.24739414 272.476562,3.5859375 C271.669267,3.92448086 271.115887,4.54947461 270.816406,5.4609375 C270.516926,6.37240039 270.367188,7.83071914 270.367188,9.8359375 L270.367188,27.84375 C272.476573,27.713541 274.436189,27.0625059 276.246094,25.890625 C278.055999,24.7187441 280.054677,22.8698043 282.242188,20.34375 L286.929688,14.640625 C289.377616,11.7499855 290.601562,9.27605195 290.601562,7.21875 C290.601562,5.89061836 290.087245,4.85547246 289.058594,4.11328125 C288.029943,3.37109004 286.591155,2.97395859 284.742188,2.921875 L284.742188,1.359375 C288.648457,1.51562578 292.580709,1.59375 296.539062,1.59375 C299.638036,1.59375 302.164053,1.51562578 304.117188,1.359375 L304.117188,2.921875 C299.872375,3.83333789 295.992205,6.372375 292.476562,10.5390625 L282.476562,22.453125 L301.109375,51.515625 C301.890629,52.7656313 302.704423,53.761715 303.550781,54.5039062 Z M386.963217,1.359375 L386.963217,2.9609375 C385.609044,3.48177344 384.313484,4.49738828 383.076499,6.0078125 C381.839513,7.51823672 380.804367,9.66665273 379.97103,12.453125 L365.869467,58.15625 C364.723628,58.1041664 363.786138,58.078125 363.056967,58.078125 C362.379881,58.078125 361.468431,58.1041664 360.322592,58.15625 L348.525717,22.5703125 L336.650717,58.15625 C335.504878,58.1041664 334.567388,58.078125 333.838217,58.078125 C333.161131,58.078125 332.249681,58.1041664 331.103842,58.15625 L313.174155,8.078125 C312.52311,6.30728281 311.748378,5.02474355 310.849936,4.23046875 C309.951494,3.43619395 309.046555,3.01302109 308.135092,2.9609375 L308.135092,1.359375 C311.28615,1.51562578 315.257464,1.59375 320.049155,1.59375 C324.502302,1.59375 327.783519,1.51562578 329.892905,1.359375 L329.892905,2.9609375 C328.017895,3.22135547 327.080405,4.26301172 327.080405,6.0859375 C327.080405,7.07552578 327.327798,8.27343047 327.822592,9.6796875 L339.424155,43.5078125 L347.588217,19.71875 L343.447592,7.2578125 C342.926756,5.72134648 342.308273,4.64062813 341.592124,4.015625 C340.875974,3.39062188 340.049159,3.03906289 339.111655,2.9609375 L339.111655,1.359375 C342.028336,1.51562578 345.830381,1.59375 350.517905,1.59375 C355.674181,1.59375 359.515288,1.51562578 362.041342,1.359375 L362.041342,2.9609375 C360.062166,3.03906289 358.65593,3.2669252 357.822592,3.64453125 C356.989255,4.0221373 356.572592,4.78384844 356.572592,5.9296875 C356.572592,6.81510859 356.846027,8.06509609 357.392905,9.6796875 L368.369467,43.15625 L375.986655,18.9375 C377.184577,15.0833141 377.78353,11.9843867 377.78353,9.640625 C377.78353,7.32290508 377.210619,5.64323438 376.06478,4.6015625 C374.918941,3.55989062 373.200208,3.01302109 370.90853,2.9609375 L370.90853,1.359375 C374.502298,1.51562578 377.822577,1.59375 380.869467,1.59375 C383.317396,1.59375 385.348626,1.51562578 386.963217,1.359375 Z M435.512372,3.6640625 C439.757185,5.95574063 443.051423,9.28253027 445.395185,13.6445312 C447.738946,18.0065322 448.91081,23.1952824 448.91081,29.2109375 C448.91081,35.0963836 447.706394,40.3046648 445.297528,44.8359375 C442.888662,49.3672102 439.542341,52.8828 435.258466,55.3828125 C430.97459,57.882825 426.085316,59.1328125 420.590497,59.1328125 C414.939427,59.1328125 409.98505,57.9869906 405.727216,55.6953125 C401.469382,53.4036344 398.175144,50.0768447 395.844403,45.7148438 C393.513662,41.3528428 392.34831,36.1640926 392.34831,30.1484375 C392.34831,24.2629914 393.546214,19.0547102 395.94206,14.5234375 C398.337905,9.99216484 401.684226,6.476575 405.981122,3.9765625 C410.278019,1.47655 415.173803,0.2265625 420.668622,0.2265625 C426.319692,0.2265625 431.267559,1.37238437 435.512372,3.6640625 Z M412.582685,5.24609375 C410.369132,7.62891816 408.656909,10.9491975 407.445966,15.2070312 C406.235022,19.464865 405.62956,24.3411184 405.62956,29.8359375 C405.62956,35.3567984 406.306636,40.2330518 407.66081,44.4648438 C409.014983,48.6966357 410.857412,51.9583219 413.188153,54.25 C415.518894,56.5416781 418.090483,57.6875 420.902997,57.6875 C423.84572,57.6875 426.43033,56.4961057 428.656903,54.1132812 C430.883477,51.7304568 432.60221,48.4101775 433.813153,44.1523438 C435.024097,39.89451 435.62956,35.0182566 435.62956,29.5234375 C435.62956,23.9765348 434.952483,19.0937711 433.59831,14.875 C432.244136,10.6562289 430.401707,7.40105313 428.070966,5.109375 C425.740225,2.81769687 423.155615,1.671875 420.31706,1.671875 C417.374336,1.671875 414.796237,2.86326934 412.582685,5.24609375 Z M506.170902,4.30859375 C505.337564,4.97265957 504.771164,5.99478477 504.471683,7.375 C504.172202,8.75521523 504.022464,10.7994656 504.022464,13.5078125 L504.022464,58.15625 C503.631837,58.1302082 502.993823,58.1171875 502.108402,58.1171875 C501.170897,58.1171875 500.441738,58.1302082 499.920902,58.15625 L465.233402,14.171875 L465.233402,44.875 C465.233402,48.0520992 465.396161,50.3697844 465.721683,51.828125 C466.047205,53.2864656 466.743813,54.3541633 467.811527,55.03125 C468.87924,55.7083367 470.610994,56.1640613 473.006839,56.3984375 L473.006839,58 C470.949537,57.8437492 468.058941,57.765625 464.334964,57.765625 C461.392241,57.765625 459.074556,57.8437492 457.381839,58 L457.381839,56.3984375 C459.12664,56.1640613 460.415689,55.7148471 461.249027,55.0507812 C462.082364,54.3867154 462.648765,53.3645902 462.948246,51.984375 C463.247726,50.6041598 463.397464,48.5599094 463.397464,45.8515625 L463.397464,9.8359375 C463.397464,7.83071914 463.247726,6.37240039 462.948246,5.4609375 C462.648765,4.54947461 462.095385,3.92448086 461.288089,3.5859375 C460.480794,3.24739414 459.178723,3.03906289 457.381839,2.9609375 L457.381839,1.359375 C459.074556,1.51562578 461.392241,1.59375 464.334964,1.59375 C467.069353,1.59375 469.374017,1.51562578 471.249027,1.359375 L502.186527,39.5234375 L502.186527,14.484375 C502.186527,11.3072758 502.023768,8.98959063 501.698246,7.53125 C501.372723,6.07290937 500.676115,5.00521172 499.608402,4.328125 C498.540688,3.65103828 496.808935,3.19531367 494.413089,2.9609375 L494.413089,1.359375 C496.496433,1.51562578 499.387029,1.59375 503.084964,1.59375 C506.053729,1.59375 508.371414,1.51562578 510.038089,1.359375 L510.038089,2.9609375 C508.293289,3.19531367 507.004239,3.64452793 506.170902,4.30859375 Z" id="KWON" fill="#CD6878"></path>
    </g>
</svg>